<svg height="512" viewBox="0 0 64 64" width="512" xmlns="http://www.w3.org/2000/svg"><g id="Communicate"><path d="m22.157 18.107h1v5h-1z" transform="matrix(.707 -.707 .707 .707 -7.935 22.056)"/><path d="m11.307 7.257h1.001v5h-1.001z" transform="matrix(.707 -.707 .707 .707 -3.441 11.207)"/><path d="m13.464 23.435a7.013 7.013 0 0 0 9.142.657l-3.556-3.556a5.012 5.012 0 0 1 -6.293-.637l-.242-.242a5.009 5.009 0 0 1 -.637-6.293l-3.556-3.556a7.012 7.012 0 0 0 .657 9.142z"/><path d="m5 30h22a1 1 0 0 0 1-1v-24a1 1 0 0 0 -1-1h-22a1 1 0 0 0 -1 1v24a1 1 0 0 0 1 1zm2.565-22.364 2.122-2.121a1 1 0 0 1 1.414 0l4.949 4.949a1 1 0 0 1 0 1.414l-2.121 2.122a3 3 0 0 0 0 4.243l.242.242a3 3 0 0 0 4.243 0l2.122-2.121a1 1 0 0 1 1.414 0l4.949 4.95a1 1 0 0 1 0 1.414l-2.121 2.121a9.01 9.01 0 0 1 -12.728 0l-4.485-4.485a9.01 9.01 0 0 1 0-12.728z"/><path d="m24 51.78v-7.555l-4.261 3.784z"/><path d="m22.366 43h-12.734l6.363 5.65z"/><path d="m17.333 50.146a1.993 1.993 0 0 1 -2.671-.005l-.9-.8-4.123 3.659h12.722l-4.128-3.654z"/><path d="m8 44.225v7.555l4.261-3.771z"/><path d="m5 60h22a1 1 0 0 0 1-1v-22a1 1 0 0 0 -1-1h-22a1 1 0 0 0 -1 1v22a1 1 0 0 0 1 1zm1-18a1 1 0 0 1 1-1h18a1 1 0 0 1 1 1v12a1 1 0 0 1 -1 1h-18a1 1 0 0 1 -1-1z"/><circle cx="48" cy="16" r="2"/><path d="m59 30a1 1 0 0 0 1-1v-24a1 1 0 0 0 -1-1h-22a1 1 0 0 0 -1 1v24a1 1 0 0 0 1 1h5v-.888a3.077 3.077 0 0 1 2.739-3.1 2.966 2.966 0 0 1 2.387.881 2.926 2.926 0 0 1 .874 2.107v1zm-19-14a8 8 0 0 1 16 0v1a2.987 2.987 0 0 1 -5.286 1.92 3.987 3.987 0 1 1 1.286-2.92v1a1 1 0 0 0 2 0v-1a6 6 0 1 0 -6 6h4a1 1 0 0 1 0 2h-4a8.009 8.009 0 0 1 -8-8z"/><path d="m43.7 57.453a1 1 0 0 1 .236.626l.043 1.921h12.021v-2a1.006 1.006 0 0 1 .168-.555l1.832-2.745v-12.7a.957.957 0 0 0 -.288-.694.974.974 0 0 0 -.712-.306 1 1 0 0 0 -1 1v3a1 1 0 0 1 -2 0v-5a.957.957 0 0 0 -.288-.694.974.974 0 0 0 -.712-.306 1 1 0 0 0 -1 1v5a1 1 0 0 1 -2 0v-7a.957.957 0 0 0 -.288-.694.974.974 0 0 0 -.712-.306 1 1 0 0 0 -1 1v7a1 1 0 0 1 -2 0v-16a.957.957 0 0 0 -.288-.694.974.974 0 0 0 -.805-.3 1.082 1.082 0 0 0 -.907 1.106v19.888a1 1 0 0 1 -1.9.427s-3.158-6.7-3.173-6.763a.98.98 0 0 0 -.462-.6 1.018 1.018 0 0 0 -.768-.1l-.914.246 4.1 11.923z"/></g></svg>